<?xml version="1.0" encoding="utf-8"?>
<!-- Generator: Adobe Illustrator 20.1.0, SVG Export Plug-In . SVG Version: 6.00 Build 0)  -->
<svg version="1.1" id="Layer_1" xmlns="http://www.w3.org/2000/svg" xmlns:xlink="http://www.w3.org/1999/xlink" x="0px" y="0px"
	 width="238px" height="244px" viewBox="104 0 28 168" style="enable-background:new 0 0 238 218;" xml:space="preserve">
<style type="text/css">
	.st0{fill:#FFFFFF;}
	.st1{fill:url(#SVGID_1_);}
</style>
<g>
	<linearGradient id="SVGID_1_" gradientUnits="userSpaceOnUse" x1="37.8613" y1="4.1387" x2="190.6618" y2="156.9392">
		<stop  offset="0" style="stop-color:#00C1FF"/>
		<stop  offset="1" style="stop-color:#0095FF"/>
	</linearGradient>
	<path class="st1" d="M199.6,101l-15.9-69.3c-0.9-3.8-4.4-7.6-8.1-8.6L102.8,0.7c-0.9-0.3-2-0.5-3-0.5c-3.2,0-6.4,1.2-8.5,3L39,51.7
		c-2.7,2.6-4.4,7.6-3.5,11.2l17,74.2c0.9,3.8,4.4,7.6,8.1,8.6l68.1,20.9c0.9,0.3,2,0.5,3,0.5c3.2,0,6.4-1.2,8.5-3l55.9-51.7
		C199,109.6,200.5,104.8,199.6,101 M110.2,17.2l49.8,15.3c2,0.6,2,1.5,0,2l-26.3,6.1c-2,0.5-4.7-0.5-6.1-1.8l-18.4-19.7
		C107.8,17.4,108.3,16.6,110.2,17.2 M141.4,106.7c0.5,2-0.8,3.2-2.7,2.6L84.7,92.6c-2-0.6-2.3-2.3-0.8-3.6l41.3-38.2
		c1.5-1.4,3-0.9,3.5,1.1L141.4,106.7z M52.5,57.7l43.8-40.7c1.5-1.4,3.8-1.4,5.3,0.2l22,23.7c1.4,1.5,1.4,3.8-0.2,5.3L79.6,86.9
		c-1.5,1.4-3.8,1.4-5.3-0.2L52.4,63C51,61.5,51.1,59.1,52.5,57.7 M63.1,122.3L51.6,71.5c-0.5-2,0.3-2.4,1.7-0.9l18.4,19.7
		c1.4,1.5,2,4.3,1.4,6.2l-7.9,25.8C64.5,124.3,63.6,124.3,63.1,122.3 M127.3,151.9l-57.1-17.6c-2-0.6-3-2.7-2.4-4.7l9.6-30.8
		c0.6-2,2.7-3,4.7-2.4l57,17.6c2,0.6,3,2.7,2.4,4.7l-9.6,30.8C131.4,151.5,129.2,152.5,127.3,151.9 M178,110.5l-38.3,35.3
		c-1.5,1.4-2.3,0.9-1.7-1.1L146,119c0.6-2,2.7-3.9,4.7-4.4l26.3-6.1C179.1,108.2,179.5,109,178,110.5 M182.3,102.9l-31.4,7.1
		c-2,0.5-4-0.8-4.4-2.7L133,49.2c-0.5-2,0.8-3.9,2.7-4.4l31.4-7.1c2-0.4,3.9,0.8,4.4,2.7L185,98.5
		C185.5,100.5,184.2,102.5,182.3,102.9"/>
</g>
</svg>
